<svg width="320" height="58" viewBox="0 0 320 58" fill="none" xmlns="http://www.w3.org/2000/svg">
<rect width="320" height="58" rx="12" fill="#FEE500"/>
<path d="M65 35.4706C70.799 35.4706 75.5 31.7835 75.5 27.2353C75.5 22.6871 70.799 19 65 19C59.201 19 54.5 22.6871 54.5 27.2353C54.5 29.9522 56.1774 32.3618 58.7643 33.8617L58 39L63.3031 35.3636C63.8554 35.434 64.4223 35.4706 65 35.4706Z" fill="#181600"/>
<path d="M99.692 28.856V27.48H97.5V21.768H95.852V36.216H97.5V28.856H99.692ZM93.772 23.224H87.196V24.568H92.14C92.076 25.368 91.948 26.12 91.756 26.824L86.46 27.16L86.684 28.584L91.26 28.136C90.8333 29.0427 90.2307 29.8693 89.452 30.616C88.6733 31.352 87.644 32.04 86.364 32.68L87.26 33.96C88.572 33.2987 89.6493 32.5733 90.492 31.784C91.3347 30.984 91.996 30.1307 92.476 29.224C92.9667 28.3173 93.3027 27.3627 93.484 26.36C93.676 25.3467 93.772 24.3013 93.772 23.224ZM114.091 28.856V27.48H111.899V21.768H110.251V36.216H111.899V28.856H114.091ZM108.171 23.224H101.595V24.568H106.539C106.475 25.368 106.347 26.12 106.155 26.824L100.859 27.16L101.083 28.584L105.659 28.136C105.232 29.0427 104.629 29.8693 103.851 30.616C103.072 31.352 102.043 32.04 100.763 32.68L101.659 33.96C102.971 33.2987 104.048 32.5733 104.891 31.784C105.733 30.984 106.395 30.1307 106.875 29.224C107.365 28.3173 107.701 27.3627 107.883 26.36C108.075 25.3467 108.171 24.3013 108.171 23.224ZM128.202 33.112H122.458V30.36C123.119 30.296 123.722 30.1627 124.266 29.96C124.82 29.7467 125.295 29.4747 125.69 29.144C126.095 28.8133 126.404 28.424 126.618 27.976C126.842 27.528 126.954 27.0373 126.954 26.504C126.954 25.9067 126.82 25.3733 126.554 24.904C126.287 24.424 125.914 24.0187 125.434 23.688C124.964 23.3467 124.404 23.0853 123.754 22.904C123.114 22.7227 122.41 22.632 121.642 22.632C120.874 22.632 120.164 22.7227 119.514 22.904C118.863 23.0853 118.303 23.3467 117.834 23.688C117.364 24.0187 116.996 24.424 116.73 24.904C116.463 25.3733 116.33 25.9067 116.33 26.504C116.33 27.048 116.436 27.544 116.65 27.992C116.874 28.4293 117.183 28.8133 117.578 29.144C117.972 29.464 118.442 29.7307 118.986 29.944C119.54 30.1467 120.148 30.28 120.81 30.344V33.112H115.114V34.456H128.202V33.112ZM117.93 26.504C117.93 26.1093 118.02 25.7573 118.202 25.448C118.394 25.128 118.65 24.856 118.97 24.632C119.3 24.408 119.69 24.2373 120.138 24.12C120.596 24.0027 121.098 23.944 121.642 23.944C122.175 23.944 122.666 24.0027 123.114 24.12C123.572 24.2373 123.967 24.408 124.298 24.632C124.628 24.856 124.884 25.128 125.066 25.448C125.247 25.7573 125.338 26.1093 125.338 26.504C125.338 26.8987 125.247 27.256 125.066 27.576C124.884 27.8853 124.628 28.152 124.298 28.376C123.967 28.6 123.572 28.7707 123.114 28.888C122.666 29.0053 122.175 29.064 121.642 29.064C121.098 29.064 120.596 29.0053 120.138 28.888C119.69 28.7707 119.3 28.6 118.97 28.376C118.65 28.152 118.394 27.8853 118.202 27.576C118.02 27.256 117.93 26.8987 117.93 26.504ZM145.858 33.176H140.114V30.712H144.626V29.384H135.97V27.368H144.306V22.792H134.322V24.12H142.674V26.056H134.354V30.712H138.466V33.176H132.77V34.536H145.858V33.176ZM156.913 24.552V24.776C156.913 25.2453 156.908 25.736 156.897 26.248C156.897 26.7493 156.876 27.2827 156.833 27.848C156.801 28.4027 156.748 28.9947 156.673 29.624C156.598 30.2427 156.492 30.9093 156.353 31.624L158.017 31.8C158.156 31.032 158.262 30.328 158.337 29.688C158.412 29.0373 158.465 28.4293 158.497 27.864C158.529 27.2987 158.545 26.7653 158.545 26.264C158.556 25.752 158.561 25.256 158.561 24.776V23.224H148.561V24.552H156.913ZM160.241 32.856H147.169V34.216H160.241V32.856ZM173.472 32.28V21.784H171.824V32.28H173.472ZM169.504 26.36C169.504 25.8267 169.408 25.3413 169.216 24.904C169.024 24.456 168.752 24.072 168.4 23.752C168.059 23.432 167.653 23.1867 167.184 23.016C166.725 22.8347 166.224 22.744 165.68 22.744C165.136 22.744 164.629 22.8347 164.16 23.016C163.691 23.1867 163.285 23.432 162.944 23.752C162.603 24.072 162.331 24.456 162.128 24.904C161.936 25.3413 161.84 25.8267 161.84 26.36C161.84 26.8827 161.936 27.368 162.128 27.816C162.331 28.2533 162.603 28.632 162.944 28.952C163.285 29.272 163.691 29.5227 164.16 29.704C164.629 29.8853 165.136 29.976 165.68 29.976C166.224 29.976 166.725 29.8853 167.184 29.704C167.653 29.5227 168.059 29.272 168.4 28.952C168.752 28.632 169.024 28.2533 169.216 27.816C169.408 27.368 169.504 26.8827 169.504 26.36ZM163.456 26.36C163.456 25.688 163.664 25.1547 164.08 24.76C164.507 24.3653 165.04 24.168 165.68 24.168C166 24.168 166.293 24.2213 166.56 24.328C166.827 24.424 167.061 24.568 167.264 24.76C167.467 24.952 167.621 25.1813 167.728 25.448C167.845 25.7147 167.904 26.0187 167.904 26.36C167.904 26.6907 167.845 26.9893 167.728 27.256C167.621 27.5227 167.467 27.752 167.264 27.944C167.061 28.136 166.827 28.2853 166.56 28.392C166.293 28.4987 166 28.552 165.68 28.552C165.36 28.552 165.061 28.4987 164.784 28.392C164.517 28.2853 164.283 28.136 164.08 27.944C163.888 27.752 163.733 27.5227 163.616 27.256C163.509 26.9893 163.456 26.6907 163.456 26.36ZM173.888 34.616H165.696V31.224H164.032V35.96H173.888V34.616ZM182.495 22.6C181.748 22.6 181.049 22.7013 180.399 22.904C179.748 23.096 179.183 23.3733 178.703 23.736C178.233 24.088 177.86 24.5147 177.583 25.016C177.316 25.5173 177.183 26.072 177.183 26.68C177.183 27.2987 177.316 27.8587 177.583 28.36C177.86 28.8613 178.233 29.2933 178.703 29.656C179.183 30.008 179.748 30.28 180.399 30.472C181.049 30.664 181.748 30.76 182.495 30.76C183.252 30.76 183.951 30.664 184.591 30.472C185.241 30.28 185.801 30.008 186.271 29.656C186.751 29.2933 187.124 28.8613 187.391 28.36C187.668 27.8587 187.807 27.2987 187.807 26.68C187.807 26.072 187.668 25.5173 187.391 25.016C187.124 24.5147 186.751 24.088 186.271 23.736C185.801 23.3733 185.241 23.096 184.591 22.904C183.951 22.7013 183.252 22.6 182.495 22.6ZM182.495 23.96C183.028 23.96 183.519 24.024 183.967 24.152C184.425 24.28 184.82 24.4613 185.151 24.696C185.481 24.9307 185.737 25.2187 185.919 25.56C186.111 25.8907 186.207 26.264 186.207 26.68C186.207 27.096 186.111 27.4747 185.919 27.816C185.737 28.1467 185.481 28.4293 185.151 28.664C184.82 28.8987 184.425 29.08 183.967 29.208C183.519 29.336 183.028 29.4 182.495 29.4C181.961 29.4 181.465 29.336 181.007 29.208C180.559 29.08 180.169 28.8987 179.839 28.664C179.508 28.4293 179.247 28.1467 179.055 27.816C178.873 27.4747 178.783 27.096 178.783 26.68C178.783 26.264 178.873 25.8907 179.055 25.56C179.247 25.2187 179.508 24.9307 179.839 24.696C180.169 24.4613 180.559 24.28 181.007 24.152C181.465 24.024 181.961 23.96 182.495 23.96ZM189.055 33.048H175.967V34.408H189.055V33.048ZM203.453 33.176H197.709V30.712H202.221V29.384H193.565V27.368H201.901V22.792H191.917V24.12H200.269V26.056H191.949V30.712H196.061V33.176H190.365V34.536H203.453V33.176ZM220.374 21.784H218.79V36.232H220.374V21.784ZM215.878 22.136V25.688H214.054C214.108 25.3467 214.145 25 214.166 24.648C214.198 24.296 214.214 23.9333 214.214 23.56H208.63V24.888H212.582C212.465 26.392 212.033 27.7307 211.286 28.904C210.55 30.0667 209.43 31.1013 207.926 32.008L208.87 33.176C210.225 32.3653 211.297 31.4427 212.086 30.408C212.876 29.3733 213.436 28.248 213.766 27.032H215.878V29.32H213.51V30.664H215.878V35.528H217.414V22.136H215.878ZM234.101 27.656L234.725 26.376C234.01 26.28 233.349 26.1147 232.741 25.88C232.133 25.6347 231.61 25.3467 231.173 25.016C230.736 24.6747 230.394 24.296 230.149 23.88C229.904 23.464 229.781 23.0267 229.781 22.568V22.024H228.085V22.568C228.085 23.016 227.962 23.448 227.717 23.864C227.472 24.28 227.125 24.6587 226.677 25C226.24 25.3413 225.717 25.6347 225.109 25.88C224.512 26.1147 223.856 26.28 223.141 26.376L223.749 27.656C224.944 27.4747 225.989 27.1227 226.885 26.6C227.781 26.0773 228.458 25.432 228.917 24.664C229.397 25.4427 230.09 26.0933 230.997 26.616C231.904 27.128 232.938 27.4747 234.101 27.656ZM235.509 28.92H229.749V26.856H228.101V28.92H222.405V30.248H235.509V28.92ZM223.861 31.496V32.824H232.229V36.248H233.877V31.496H223.861ZM250.26 28.968V27.592H248.036V21.784H246.372V36.248H248.036V28.968H250.26ZM241.828 24.008V21.992H240.18V24.008H236.74V25.352H245.204V24.008H241.828ZM241.028 26.376C240.505 26.376 240.025 26.4613 239.588 26.632C239.15 26.792 238.772 27.0213 238.452 27.32C238.132 27.6187 237.881 27.976 237.7 28.392C237.529 28.7973 237.444 29.2507 237.444 29.752C237.444 30.2427 237.529 30.696 237.7 31.112C237.881 31.528 238.132 31.8853 238.452 32.184C238.772 32.4827 239.15 32.7173 239.588 32.888C240.025 33.048 240.505 33.128 241.028 33.128C241.54 33.128 242.014 33.048 242.452 32.888C242.889 32.7173 243.268 32.4827 243.588 32.184C243.908 31.8853 244.158 31.528 244.34 31.112C244.521 30.696 244.612 30.2427 244.612 29.752C244.612 29.2507 244.521 28.7973 244.34 28.392C244.158 27.976 243.908 27.6187 243.588 27.32C243.268 27.0213 242.889 26.792 242.452 26.632C242.014 26.4613 241.54 26.376 241.028 26.376ZM241.028 31.768C240.441 31.768 239.956 31.5867 239.572 31.224C239.198 30.8507 239.012 30.36 239.012 29.752C239.012 29.144 239.198 28.6587 239.572 28.296C239.956 27.9227 240.441 27.736 241.028 27.736C241.614 27.736 242.094 27.9227 242.468 28.296C242.852 28.6587 243.044 29.144 243.044 29.752C243.044 30.36 242.852 30.8507 242.468 31.224C242.094 31.5867 241.614 31.768 241.028 31.768ZM263.138 21.784H261.49V36.232H263.138V21.784ZM258.882 23.304H252.034V24.648H257.186C257.048 26.312 256.509 27.784 255.57 29.064C254.632 30.3333 253.213 31.4267 251.314 32.344L252.194 33.656C253.432 33.0587 254.477 32.3867 255.33 31.64C256.184 30.8827 256.872 30.0667 257.394 29.192C257.928 28.3173 258.306 27.3893 258.53 26.408C258.765 25.416 258.882 24.3813 258.882 23.304Z" fill="#181600"/>
</svg>
